<svg width="19" height="19" viewBox="0 0 19 19" fill="none" xmlns="http://www.w3.org/2000/svg">
<path d="M8.55517 0.890068C6.74258 1.28795 5.38013 2.67452 5.03851 4.47907C4.95411 4.93724 4.95813 5.76516 5.05458 6.21931C5.43237 8.01984 6.77473 9.3622 8.57526 9.73999C9.0696 9.84448 9.88949 9.84448 10.3838 9.73999C12.108 9.37827 13.4142 8.13639 13.8643 6.42026C13.9487 6.10276 13.9608 5.97013 13.9608 5.31503C13.9608 4.68404 13.9487 4.51926 13.8724 4.22587C13.4624 2.61825 12.1884 1.33618 10.5888 0.926239C10.1105 0.805668 9.02941 0.785573 8.55517 0.890068ZM10.2633 2.22037C10.5727 2.29673 11.2439 2.63433 11.5051 2.85538C12.0115 3.27738 12.4094 3.9164 12.5742 4.56749C12.6747 4.96135 12.6827 5.60038 12.5903 6.01032C12.5059 6.39213 12.1884 7.04321 11.9352 7.34464C11.3203 8.08816 10.4401 8.49409 9.46347 8.49409C8.95305 8.49007 8.53909 8.39361 8.05279 8.15247C7.39366 7.82291 6.90736 7.32053 6.59388 6.64131C6.38489 6.1952 6.3045 5.82143 6.3045 5.30297C6.3045 3.24522 8.23364 1.7421 10.2633 2.22037Z" fill="#223752"/>
<path d="M5.29648 11.1468C4.12292 11.3196 2.98553 11.8983 2.12948 12.7584C1.66729 13.2206 1.32567 13.7029 1.0363 14.2977C0.626359 15.1417 0.461579 15.8892 0.485693 16.7694C0.49775 17.2316 0.513826 17.3441 0.598226 17.533C0.827311 18.0675 1.2252 18.4654 1.76375 18.7025L1.98479 18.799L9.41197 18.8111C16.815 18.8191 16.8351 18.8191 17.0883 18.7387C17.3978 18.6342 17.8278 18.3489 18.0167 18.1198C18.2016 17.8947 18.3503 17.6134 18.4307 17.3361C18.5271 16.9985 18.4829 16.0058 18.3463 15.4592C18.0851 14.4022 17.5827 13.5059 16.8271 12.7544C16.0796 12.0068 15.2155 11.5205 14.1263 11.2312L13.7204 11.1267L9.62096 11.1186C7.36628 11.1146 5.42107 11.1267 5.29648 11.1468ZM13.6802 12.4971C14.5604 12.6981 15.2757 13.092 15.8866 13.6988C16.6824 14.4986 17.1567 15.5918 17.1567 16.6408C17.1567 17.0588 17.0642 17.2557 16.7869 17.4124L16.6141 17.5129H9.4803H2.34651L2.17369 17.4124C1.89637 17.2557 1.80394 17.0588 1.80394 16.6408C1.80394 14.7237 3.31108 12.9111 5.24021 12.5092C5.71848 12.4087 6.17665 12.3967 9.72144 12.4047C13.1979 12.4127 13.3305 12.4168 13.6802 12.4971Z" fill="#223752"/>
</svg>
