<svg width="22" height="19" viewBox="0 0 22 19" fill="none" xmlns="http://www.w3.org/2000/svg">
<path d="M6.9744 0.239906C4.02643 0.701933 1.63044 2.88122 0.927184 5.74332C0.751369 6.47112 0.710482 6.90452 0.735015 7.79586C0.759547 8.6872 0.829055 9.09199 1.09482 9.8852C1.8267 12.0808 3.53988 13.794 5.73552 14.5259C6.63095 14.8244 6.88445 14.8612 8.30732 14.8939C9.41946 14.9184 9.59118 14.9307 9.71793 14.9961C9.91828 15.1024 10.0001 15.1801 10.0982 15.3682C10.18 15.5195 10.1881 15.6176 10.2086 16.5989L10.229 17.666L10.3394 17.8296C10.4825 18.0504 10.7319 18.1689 11.0427 18.1689C11.1694 18.1689 11.3166 18.1485 11.3657 18.124C11.4148 18.0953 12.0812 17.6865 12.8458 17.2081C13.6104 16.7338 14.7062 16.051 15.2786 15.6953C16.5992 14.8734 17.646 14.1784 18.3247 13.6714C20.2259 12.2403 21.1418 10.9605 21.5221 9.18194C21.6284 8.69129 21.6365 8.60134 21.6365 7.5996C21.6365 6.39752 21.5957 6.1154 21.2849 5.19135C20.4099 2.55412 18.1407 0.656956 15.3685 0.239906C14.8125 0.154043 7.51411 0.158133 6.9744 0.239906ZM15.2295 1.9081C16.4398 2.12889 17.5233 2.70541 18.3697 3.58448C19.0198 4.25503 19.4246 4.9174 19.7108 5.78012C19.9356 6.46294 19.997 6.92496 19.9684 7.82039C19.952 8.44597 19.9275 8.6504 19.8457 8.98977C19.6045 9.93835 19.2201 10.5844 18.4228 11.3694C17.5397 12.2362 16.6238 12.8781 13.3773 14.8898L11.8645 15.8261L11.84 15.5154C11.8114 15.1269 11.75 14.9143 11.5701 14.5504C11.3739 14.162 10.9405 13.7327 10.552 13.5364C10.0818 13.2993 9.90601 13.2747 8.65486 13.2502C7.39145 13.2257 7.00302 13.1766 6.32838 12.9517C5.46975 12.6655 4.79511 12.2567 4.12865 11.6106C3.44584 10.9524 2.96337 10.1878 2.66898 9.29642C2.47681 8.70765 2.39912 8.20473 2.39912 7.53827C2.39912 6.87181 2.47681 6.36481 2.66898 5.78012C2.95519 4.92149 3.35997 4.25503 4.01008 3.58448C4.99137 2.56639 6.2507 1.96943 7.65313 1.85495C7.87801 1.8386 9.59118 1.82633 11.4556 1.83042C14.4363 1.8386 14.8943 1.85086 15.2295 1.9081Z" fill="#223752"/>
<path d="M7.6449 5.19152C7.3914 5.3428 7.26465 5.57995 7.26465 5.90296C7.26465 6.23006 7.3914 6.4672 7.64899 6.61849L7.8248 6.7207H11.1898H14.5548L14.7307 6.61849C14.9882 6.4672 15.115 6.23006 15.115 5.90296C15.115 5.57586 14.9882 5.33872 14.7307 5.18743L14.5548 5.08521H11.1857H7.81663L7.6449 5.19152Z" fill="#223752"/>
<path d="M7.6449 8.46252C7.3914 8.6138 7.26465 8.85095 7.26465 9.17396C7.26465 9.50105 7.3914 9.7382 7.64899 9.88948L7.8248 9.9917H11.1898H14.5548L14.7307 9.88948C14.9882 9.7382 15.115 9.50105 15.115 9.17396C15.115 8.84686 14.9882 8.60971 14.7307 8.45843L14.5548 8.35621H11.1857H7.81663L7.6449 8.46252Z" fill="#223752"/>
</svg>
