<svg width="19" height="18" viewBox="0 0 19 18" fill="none" xmlns="http://www.w3.org/2000/svg">
<path d="M8.86858 0.028532C8.52095 0.0770378 8.18949 0.178093 7.86207 0.335739C7.42551 0.549976 1.28946 4.85491 0.962043 5.18233C0.476979 5.65931 0.137435 6.33032 0.040422 7.00132C0.0161688 7.17513 0 8.76372 0 11.1284C0 15.3646 0 15.3889 0.246574 15.979C0.650794 16.9492 1.45519 17.6444 2.48595 17.9193C2.75678 17.9921 3.05186 17.9961 9.29705 17.9961C15.5422 17.9961 15.8373 17.9921 16.1082 17.9193C17.3006 17.604 18.1818 16.7228 18.4971 15.5304C18.5698 15.2636 18.5739 15.021 18.5739 11.1041C18.5739 7.20343 18.5698 6.94473 18.5011 6.69816C18.3233 6.07162 18.0363 5.57442 17.6199 5.16616C17.3006 4.85491 11.1443 0.533806 10.728 0.331697C10.1985 0.0729961 9.44257 -0.0523109 8.86858 0.028532ZM9.57596 1.3665C9.72148 1.38671 9.92763 1.44734 10.0408 1.49585C10.3157 1.61307 16.4154 5.88163 16.6862 6.14437C16.9328 6.38286 17.1591 6.80729 17.2198 7.13875C17.2763 7.45 17.2723 14.7704 17.2157 15.0898C17.0783 15.8537 16.4315 16.5005 15.6676 16.6379C15.5342 16.6622 14.9763 16.6824 14.4266 16.6824H13.4241L13.408 14.5521C13.3918 12.2966 13.3878 12.2521 13.1856 11.6701C12.6885 10.2432 11.4192 9.19219 9.90338 8.95774C9.47491 8.89307 8.67051 8.93349 8.26629 9.04263C6.74643 9.45089 5.65503 10.5827 5.26698 12.1551C5.21443 12.3734 5.19826 12.7736 5.18614 14.5521L5.16997 16.6905L4.03007 16.6743C2.9791 16.6581 2.86996 16.65 2.64764 16.5692C1.98876 16.3267 1.49965 15.7567 1.37839 15.0898C1.3218 14.7704 1.31776 7.45 1.37435 7.13875C1.43498 6.80729 1.66134 6.38286 1.90792 6.14437C2.18683 5.87355 8.28246 1.61307 8.56541 1.49181C8.9373 1.33012 9.17579 1.30182 9.57596 1.3665ZM9.95189 10.3321C10.9018 10.5746 11.6375 11.2658 11.9568 12.2158L12.066 12.5391L12.0781 14.6087L12.0902 16.6824H9.29705H6.50389L6.51602 14.6087L6.52815 12.5391L6.63729 12.2158C6.8879 11.472 7.3568 10.9223 8.05205 10.5585C8.61796 10.2593 9.33747 10.1744 9.95189 10.3321Z" fill="#223752"/>
</svg>
