<svg width="22" height="18" viewBox="0 0 22 18" fill="none" xmlns="http://www.w3.org/2000/svg">
<path d="M7.19901 0.0670547C4.25104 0.529081 1.85505 2.70837 1.15179 5.57047C0.975979 6.29826 0.935092 6.73167 0.959624 7.62301C0.984156 8.51435 1.05366 8.91914 1.31943 9.71235C2.05131 11.908 3.76449 13.6212 5.96013 14.353C6.85556 14.6515 7.10906 14.6883 8.53193 14.721C9.64406 14.7456 9.81579 14.7578 9.94254 14.8232C10.1429 14.9296 10.2247 15.0072 10.3228 15.1953C10.4046 15.3466 10.4127 15.4447 10.4332 16.426L10.4536 17.4932L10.564 17.6567C10.7071 17.8775 10.9565 17.9961 11.2673 17.9961C11.394 17.9961 11.5412 17.9757 11.5903 17.9511C11.6394 17.9225 12.3058 17.5136 13.0704 17.0352C13.835 16.561 14.9308 15.8781 15.5032 15.5224C16.8239 14.7006 17.8706 14.0055 18.5493 13.4985C20.4506 12.0674 21.3664 10.7877 21.7467 9.00909C21.853 8.51844 21.8612 8.42849 21.8612 7.42675C21.8612 6.22467 21.8203 5.94255 21.5095 5.0185C20.6345 2.38127 18.3653 0.484104 15.5932 0.0670547C15.0371 -0.0188084 7.73872 -0.014719 7.19901 0.0670547ZM15.4541 1.73525C16.6644 1.95604 17.7479 2.53255 18.5943 3.41163C19.2444 4.08218 19.6492 4.74455 19.9354 5.60727C20.1603 6.29009 20.2216 6.75211 20.193 7.64754C20.1766 8.27312 20.1521 8.47755 20.0703 8.81692C19.8291 9.7655 19.4447 10.4115 18.6474 11.1966C17.7643 12.0634 16.8484 12.7053 13.6019 14.7169L12.0891 15.6533L12.0646 15.3425C12.036 14.9541 11.9746 14.7415 11.7947 14.3776C11.5985 13.9891 11.1651 13.5598 10.7766 13.3636C10.3064 13.1264 10.1306 13.1019 8.87947 13.0774C7.61606 13.0528 7.22763 13.0038 6.55299 12.7789C5.69436 12.4927 5.01972 12.0838 4.35326 11.4378C3.67045 10.7795 3.18798 10.0149 2.89359 9.12357C2.70142 8.53479 2.62373 8.03188 2.62373 7.36542C2.62373 6.69896 2.70142 6.19196 2.89359 5.60727C3.1798 4.74864 3.58458 4.08218 4.23469 3.41163C5.21598 2.39354 6.47531 1.79658 7.87774 1.6821C8.10262 1.66574 9.81579 1.65348 11.6802 1.65757C14.6609 1.66574 15.1189 1.67801 15.4541 1.73525Z" fill="#979797"/>
<path d="M7.86951 5.01843C7.61601 5.16971 7.48926 5.40685 7.48926 5.72986C7.48926 6.05696 7.61601 6.29411 7.8736 6.44539L8.04941 6.54761H11.4144H14.7794L14.9553 6.44539C15.2129 6.29411 15.3396 6.05696 15.3396 5.72986C15.3396 5.40277 15.2129 5.16562 14.9553 5.01434L14.7794 4.91212H11.4103H8.04124L7.86951 5.01843Z" fill="#979797"/>
<path d="M7.86951 8.28942C7.61601 8.4407 7.48926 8.67785 7.48926 9.00086C7.48926 9.32796 7.61601 9.5651 7.8736 9.71639L8.04941 9.8186H11.4144H14.7794L14.9553 9.71639C15.2129 9.5651 15.3396 9.32796 15.3396 9.00086C15.3396 8.67376 15.2129 8.43662 14.9553 8.28533L14.7794 8.18312H11.4103H8.04124L7.86951 8.28942Z" fill="#979797"/>
</svg>
