<svg width="21" height="18" viewBox="0 0 21 18" fill="none" xmlns="http://www.w3.org/2000/svg">
<path d="M10.0322 0.0785255C9.86372 0.118441 9.61092 0.207138 9.47788 0.269228C8.83481 0.566368 1.23335 4.80616 1.07812 4.95251C0.559238 5.44922 0.430625 6.1322 0.74107 6.7664C0.820899 6.92605 0.958382 7.11232 1.06926 7.20989C1.17569 7.30302 1.74336 7.64451 2.33321 7.9727L3.40203 8.56254V10.6558C3.40203 11.8045 3.4242 12.8822 3.44638 13.0551C3.59273 14.0574 4.18701 14.9888 5.02078 15.5254C5.42435 15.7826 5.69045 15.9023 6.12951 16.0088C6.46213 16.0886 6.67944 16.093 9.9125 16.093H13.3363V16.7494C13.3363 17.3437 13.3451 17.4235 13.4383 17.6009C13.5757 17.8715 13.7265 17.969 14.0325 17.9912C14.2499 18.0045 14.3164 17.9912 14.445 17.9025C14.5293 17.8448 14.6446 17.7295 14.6978 17.6497C14.7954 17.5078 14.7998 17.4546 14.7998 16.7982V16.093H14.924C15.1058 16.093 15.7267 15.9334 15.975 15.8225C17.1104 15.3214 17.9087 14.2659 18.0816 13.0507C18.1082 12.8556 18.126 11.8444 18.126 10.6381V8.56254L19.1948 7.9727C19.7802 7.64895 20.3479 7.30746 20.4543 7.21432C20.5696 7.11232 20.7071 6.92605 20.7869 6.7664C21.1018 6.11446 20.9643 5.41374 20.4188 4.93477C20.3035 4.83277 18.5251 3.82604 16.1924 2.53991C13.9749 1.31587 12.0989 0.282532 12.0191 0.242619C11.5534 0.00756645 10.6221 -0.0678272 10.0322 0.0785255ZM11.274 1.54205C11.4736 1.61301 19.3101 5.92376 19.4476 6.03463C19.4786 6.06124 19.4875 6.10116 19.4698 6.1189C19.4476 6.14107 18.2945 6.78413 16.9064 7.55581L14.3785 8.95281L12.8041 7.38285C11.9393 6.51804 11.1676 5.78184 11.0878 5.74193C10.7729 5.58671 10.3249 5.70645 10.1476 5.99472C10.0455 6.16325 10.0189 6.54021 10.1032 6.70431C10.1298 6.75753 10.7995 7.45381 11.5933 8.24766L13.0347 9.69345L12.2009 10.1502C11.1498 10.7312 10.8971 10.8022 10.3782 10.6647C10.2362 10.6248 8.61307 9.75997 6.23151 8.4428C4.07614 7.25424 2.24895 6.24307 2.16912 6.19429C2.04494 6.1189 2.03163 6.09229 2.08042 6.0435C2.18242 5.94593 10.1121 1.57753 10.2983 1.51988C10.5556 1.44005 11.0168 1.44892 11.274 1.54205ZM7.05197 10.5804C9.32265 11.8355 9.66858 12.0129 10.0544 12.106C10.4003 12.1903 11.2075 12.177 11.5579 12.0839C11.8373 12.0085 12.2541 11.8133 12.9726 11.4142L13.3363 11.2146V12.9442V14.6739H10.2008C8.44454 14.6739 6.91449 14.6517 6.73266 14.6295C5.93881 14.5275 5.30461 14.0175 4.99417 13.2325C4.89216 12.9709 4.88773 12.9398 4.87442 11.1791C4.86555 10.199 4.86999 9.39631 4.88773 9.39631C4.90103 9.39631 5.87228 9.9285 7.05197 10.5804ZM16.6536 11.1791C16.6403 12.9442 16.6358 12.9709 16.5338 13.2325C16.3875 13.5917 16.2456 13.8091 15.9883 14.0619C15.7577 14.2836 15.2433 14.563 14.9683 14.6118L14.7998 14.6384V12.5185L14.8042 10.3942L15.7001 9.89745C16.1924 9.62692 16.6137 9.40074 16.6314 9.40074C16.6536 9.39631 16.6625 10.199 16.6536 11.1791Z" fill="#979797"/>
</svg>
