<svg width="19" height="18" viewBox="0 0 19 18" fill="none" xmlns="http://www.w3.org/2000/svg">
<path d="M8.86083 0.0717087C7.04824 0.469593 5.68579 1.85616 5.34417 3.66071C5.25977 4.11888 5.26379 4.9468 5.36025 5.40095C5.73804 7.20148 7.0804 8.54384 8.88092 8.92163C9.37527 9.02612 10.1951 9.02612 10.6895 8.92163C12.4137 8.55992 13.7198 7.31803 14.17 5.6019C14.2544 5.2844 14.2664 5.15177 14.2664 4.49667C14.2664 3.86568 14.2544 3.7009 14.178 3.40751C13.7681 1.79989 12.494 0.517821 10.8945 0.10788C10.4162 -0.0126915 9.33508 -0.0327864 8.86083 0.0717087ZM10.5689 1.40201C10.8784 1.47837 11.5496 1.81597 11.8108 2.03702C12.3172 2.45902 12.7151 3.09804 12.8799 3.74913C12.9803 4.14299 12.9884 4.78202 12.8959 5.19196C12.8115 5.57377 12.494 6.22485 12.2408 6.52628C11.6259 7.2698 10.7458 7.67573 9.76913 7.67573C9.25871 7.67171 8.84475 7.57525 8.35845 7.33411C7.69933 7.00455 7.21302 6.50217 6.89954 5.82295C6.69055 5.37684 6.61017 5.00307 6.61017 4.48461C6.61017 2.42686 8.53931 0.923744 10.5689 1.40201Z" fill="#979797"/>
<path d="M5.60214 10.3284C4.42859 10.5012 3.2912 11.08 2.43514 11.94C1.97295 12.4022 1.63134 12.8845 1.34196 13.4793C0.932023 14.3233 0.767243 15.0709 0.791357 15.951C0.803414 16.4132 0.81949 16.5257 0.90389 16.7146C1.13298 17.2492 1.53086 17.6471 2.06941 17.8842L2.29046 17.9806L9.71764 17.9927C17.1207 18.0007 17.1408 18.0007 17.394 17.9204C17.7035 17.8159 18.1335 17.5305 18.3224 17.3014C18.5073 17.0764 18.656 16.795 18.7364 16.5177C18.8328 16.1801 18.7886 15.1874 18.652 14.6408C18.3907 13.5838 17.8883 12.6876 17.1328 11.936C16.3852 11.1885 15.5211 10.7022 14.432 10.4128L14.026 10.3083L9.92663 10.3003C7.67195 10.2962 5.72673 10.3083 5.60214 10.3284ZM13.9859 11.6788C14.866 11.8797 15.5814 12.2736 16.1923 12.8805C16.9881 13.6803 17.4623 14.7734 17.4623 15.8224C17.4623 16.2404 17.3699 16.4373 17.0926 16.5941L16.9198 16.6945H9.78596H2.65217L2.47935 16.5941C2.20204 16.4373 2.1096 16.2404 2.1096 15.8224C2.1096 13.9053 3.61674 12.0927 5.54588 11.6908C6.02414 11.5904 6.48231 11.5783 10.0271 11.5864C13.5036 11.5944 13.6362 11.5984 13.9859 11.6788Z" fill="#979797"/>
</svg>
