<svg width="19" height="18" viewBox="0 0 19 18" fill="none" xmlns="http://www.w3.org/2000/svg">
<path d="M8.86858 0.0282879C8.52095 0.0767937 8.18949 0.177849 7.86207 0.335495C7.42551 0.549732 1.28946 4.85467 0.962043 5.18209C0.476979 5.65907 0.137435 6.33007 0.040422 7.00108C0.0161688 7.17489 0 8.76347 0 11.1282C0 15.3644 0 15.3886 0.246574 15.9788C0.650794 16.9489 1.45519 17.6442 2.48595 17.919C2.75678 17.9918 3.05186 17.9958 9.29705 17.9958C15.5422 17.9958 15.8373 17.9918 16.1082 17.919C17.3006 17.6038 18.1818 16.7226 18.4971 15.5301C18.5698 15.2633 18.5739 15.0208 18.5739 11.1039C18.5739 7.20319 18.5698 6.94449 18.5011 6.69791C18.3233 6.07137 18.0363 5.57418 17.6199 5.16592C17.3006 4.85467 11.1443 0.533562 10.728 0.331453C10.1985 0.072752 9.44257 -0.0525551 8.86858 0.0282879ZM9.57596 1.36625C9.72148 1.38647 9.92763 1.4471 10.0408 1.49561C10.3157 1.61283 16.4154 5.88139 16.6862 6.14413C16.9328 6.38262 17.1591 6.80705 17.2198 7.13851C17.2763 7.44976 17.2723 14.7702 17.2157 15.0895C17.0783 15.8535 16.4315 16.5002 15.6676 16.6377C15.5342 16.6619 14.9763 16.6821 14.4266 16.6821H13.4241L13.408 14.5519C13.3918 12.2964 13.3878 12.2519 13.1856 11.6698C12.6885 10.2429 11.4192 9.19195 9.90338 8.9575C9.47491 8.89282 8.67051 8.93325 8.26629 9.04239C6.74643 9.45065 5.65503 10.5825 5.26698 12.1549C5.21443 12.3732 5.19826 12.7733 5.18614 14.5519L5.16997 16.6902L4.03007 16.6741C2.9791 16.6579 2.86996 16.6498 2.64764 16.569C1.98876 16.3264 1.49965 15.7565 1.37839 15.0895C1.3218 14.7702 1.31776 7.44976 1.37435 7.13851C1.43498 6.80705 1.66134 6.38262 1.90792 6.14413C2.18683 5.8733 8.28246 1.61283 8.56541 1.49156C8.9373 1.32988 9.17579 1.30158 9.57596 1.36625ZM9.95189 10.3318C10.9018 10.5744 11.6375 11.2656 11.9568 12.2155L12.066 12.5389L12.0781 14.6085L12.0902 16.6821H9.29705H6.50389L6.51602 14.6085L6.52815 12.5389L6.63729 12.2155C6.8879 11.4717 7.3568 10.922 8.05205 10.5582C8.61796 10.2591 9.33747 10.1742 9.95189 10.3318Z" fill="#979797"/>
</svg>
