<svg width="21" height="18" viewBox="0 0 21 18" fill="none" xmlns="http://www.w3.org/2000/svg">
<path d="M10.0322 0.0787697C9.86372 0.118685 9.61092 0.207382 9.47788 0.269472C8.83481 0.566612 1.23335 4.8064 1.07812 4.95275C0.559238 5.44947 0.430625 6.13245 0.74107 6.76664C0.820899 6.9263 0.958382 7.11256 1.06926 7.21013C1.17569 7.30327 1.74336 7.64476 2.33321 7.97294L3.40203 8.56279V10.6561C3.40203 11.8047 3.4242 12.8824 3.44638 13.0554C3.59273 14.0577 4.18701 14.989 5.02078 15.5256C5.42435 15.7828 5.69045 15.9026 6.12951 16.009C6.46213 16.0889 6.67944 16.0933 9.9125 16.0933H13.3363V16.7497C13.3363 17.3439 13.3451 17.4238 13.4383 17.6012C13.5757 17.8717 13.7265 17.9693 14.0325 17.9914C14.2499 18.0047 14.3164 17.9914 14.445 17.9027C14.5293 17.8451 14.6446 17.7298 14.6978 17.65C14.7954 17.508 14.7998 17.4548 14.7998 16.7984V16.0933H14.924C15.1058 16.0933 15.7267 15.9336 15.975 15.8228C17.1104 15.3216 17.9087 14.2661 18.0816 13.0509C18.1082 12.8558 18.126 11.8446 18.126 10.6383V8.56279L19.1948 7.97294C19.7802 7.64919 20.3479 7.3077 20.4543 7.21457C20.5696 7.11256 20.7071 6.9263 20.7869 6.76664C21.1018 6.11471 20.9643 5.41399 20.4188 4.93501C20.3035 4.83301 18.5251 3.82628 16.1924 2.54015C13.9749 1.31611 12.0989 0.282776 12.0191 0.242863C11.5534 0.00781059 10.6221 -0.0675831 10.0322 0.0787697ZM11.274 1.5423C11.4736 1.61325 19.3101 5.924 19.4476 6.03488C19.4786 6.06149 19.4875 6.1014 19.4698 6.11914C19.4476 6.14131 18.2945 6.78438 16.9064 7.55606L14.3785 8.95306L12.8041 7.38309C11.9393 6.51828 11.1676 5.78209 11.0878 5.74217C10.7729 5.58695 10.3249 5.70669 10.1476 5.99496C10.0455 6.16349 10.0189 6.54046 10.1032 6.70455C10.1298 6.75777 10.7995 7.45405 11.5933 8.2479L13.0347 9.69369L12.2009 10.1505C11.1498 10.7315 10.8971 10.8024 10.3782 10.6649C10.2362 10.625 8.61307 9.76021 6.23151 8.44304C4.07614 7.25448 2.24895 6.24332 2.16912 6.19453C2.04494 6.11914 2.03163 6.09253 2.08042 6.04375C2.18242 5.94618 10.1121 1.57778 10.2983 1.52012C10.5556 1.44029 11.0168 1.44916 11.274 1.5423ZM7.05197 10.5807C9.32265 11.8358 9.66858 12.0132 10.0544 12.1063C10.4003 12.1906 11.2075 12.1773 11.5579 12.0841C11.8373 12.0087 12.2541 11.8136 12.9726 11.4144L13.3363 11.2149V12.9445V14.6741H10.2008C8.44454 14.6741 6.91449 14.6519 6.73266 14.6298C5.93881 14.5278 5.30461 14.0177 4.99417 13.2328C4.89216 12.9711 4.88773 12.9401 4.87442 11.1794C4.86555 10.1993 4.86999 9.39655 4.88773 9.39655C4.90103 9.39655 5.87228 9.92874 7.05197 10.5807ZM16.6536 11.1794C16.6403 12.9445 16.6358 12.9711 16.5338 13.2328C16.3875 13.592 16.2456 13.8093 15.9883 14.0621C15.7577 14.2838 15.2433 14.5632 14.9683 14.612L14.7998 14.6386V12.5187L14.8042 10.3944L15.7001 9.8977C16.1924 9.62717 16.6137 9.40099 16.6314 9.40099C16.6536 9.39655 16.6625 10.1993 16.6536 11.1794Z" fill="#223752"/>
</svg>
