<svg width="185" height="116" viewBox="0 0 185 116" fill="none" xmlns="http://www.w3.org/2000/svg">
<path fill-rule="evenodd" clip-rule="evenodd" d="M134.719 115.39C134.719 115.39 130.883 106.739 144.418 96.5228C157.953 86.307 151.949 80.1073 162.322 75.5996C172.694 71.0919 172.912 64.2474 174.984 63.047C177.056 61.853 175.202 73.3713 171.379 79.6732C167.556 85.975 165.458 88.1523 164.323 93.8029C163.188 99.4534 161.988 103.042 158.71 105.647C155.432 108.258 155.759 115.39 155.759 115.39H134.719Z" fill="#00C5D8"/>
<path d="M174.997 63.0537C174.997 63.0537 173.727 71.1497 167.088 77.1004C160.449 83.0511 160.121 85.0495 158.563 89.1869C157.004 93.3243 155.464 98.1896 151.603 101.963C147.741 105.736 144.315 109.689 143.661 115.403" stroke="white" stroke-miterlimit="10"/>
<path fill-rule="evenodd" clip-rule="evenodd" d="M151.526 115.39C151.526 115.39 148.421 108.386 159.384 100.117C170.347 91.8425 165.485 86.824 173.881 83.1782C182.278 79.5261 182.458 73.984 184.139 73.0135C185.819 72.0431 184.318 81.3713 181.22 86.4792C178.122 91.5871 176.428 93.3429 175.504 97.9209C174.581 102.499 173.612 105.404 170.963 107.511C168.313 109.618 168.576 115.403 168.576 115.403L151.526 115.39Z" fill="#14E3ED"/>
<path d="M184.132 73.0137C184.132 73.0137 183.106 79.5709 177.724 84.3851C172.348 89.2057 172.085 90.821 170.822 94.1731C169.558 97.5251 168.313 101.465 165.183 104.517C162.053 107.575 159.281 110.774 158.749 115.403" stroke="white" stroke-miterlimit="10"/>
<path d="M144.917 59.3311C133.544 35.3432 111.009 35.8092 111.009 35.8092H98.7569C98.7569 35.8092 78.7364 35.3432 67.3631 59.3311C55.9897 83.319 55.4316 115.403 55.4316 115.403H76.3245H106.14H141.421C149.985 115.403 156.624 107.945 155.566 99.4854C154.142 88.0885 151.159 72.4902 144.917 59.3311Z" fill="#DEA132"/>
<path d="M83.2409 95.6802C83.2409 95.6802 83.305 100.213 86.4996 101.682C89.6941 103.15 91.8238 101.005 91.8238 101.005V108.897L92.0676 111.936L92.7219 112.964L93.3377 114.183L87.1539 114.03L84.1261 112.606L82.1055 106.247L83.2409 95.6802Z" fill="#B58226"/>
<path d="M115.404 40.5657C115.404 38.9376 115 37.4052 114.295 36.0516C112.255 35.7835 111.01 35.8026 111.01 35.8026H98.7581C98.7581 35.8026 98.0653 35.7899 96.8786 35.9112C96.128 37.2967 95.6982 38.8801 95.6982 40.5593C95.6982 45.9737 100.112 50.3665 105.551 50.3665C110.997 50.3729 115.404 45.9801 115.404 40.5657Z" fill="#DFE4F7"/>
<path d="M81.733 65.1157C81.733 65.1157 79.8663 90.9361 87.7308 115.396H81.733C81.733 115.403 75.3311 88.9312 81.733 65.1157Z" fill="#B58226"/>
<path d="M111.087 24.0673C111.087 24.0673 110.484 25.8232 111.433 27.4066C111.433 27.4066 109.823 28.4154 108.636 26.5766C107.443 24.7377 109.829 22.9883 111.087 24.0673Z" fill="#192338"/>
<path d="M88.5912 9.58683C88.5912 9.58683 85.4287 14.8863 90.7978 18.6406C95.3138 21.8011 95.3972 11.1192 95.3972 11.1192C95.3972 11.1192 92.5362 8.56525 91.5933 8.65464C90.6503 8.74402 88.5912 9.58683 88.5912 9.58683Z" fill="#192338"/>
<path d="M109.188 24.9932C106.981 28.8241 102.549 32.5145 98.6807 32.5209V40.6361C98.6807 44.3393 101.696 47.3402 105.416 47.3402C109.656 47.3402 112.844 43.4837 112.023 39.3463L109.188 24.9932Z" fill="#F4B5B5"/>
<path d="M98.6807 33.6893V38.2609C108.88 35.1515 109.188 24.9932 109.188 24.9932C106.725 30.0244 102.549 33.683 98.6807 33.6893Z" fill="#ED8E8C"/>
<path d="M90.4823 9.0249C90.4823 9.0249 88.2628 22.1458 92.7916 29.8076C97.2755 37.3864 105.332 32.8787 109.188 24.9934C109.188 24.9934 112.446 24.6933 113.114 21.4243C113.781 18.1552 111.818 16.974 109.893 17.7722V9.0249H90.4823Z" fill="#F4B5B5"/>
<path d="M109.984 19.1768C109.984 19.1768 110.792 18.6213 111.465 19.0811C112.543 19.8153 111.972 23.4228 109.586 22.995" stroke="#ED8E8C" stroke-width="0.75" stroke-miterlimit="10" stroke-linecap="round"/>
<path d="M70.8209 115.403H13.0175L0.733292 76.1552C0.361236 74.9548 1.2593 73.7417 2.51659 73.7417H56.4069C57.228 73.7417 57.9465 74.2716 58.1902 75.0506L70.8209 115.403Z" fill="#00C5D8"/>
<path d="M0.720819 75.5358H54.6112C55.4323 75.5358 56.1507 76.0658 56.3945 76.8447L68.4606 115.403H70.8213L58.197 75.0506C57.9533 74.2716 57.2284 73.7417 56.4137 73.7417H2.52336C1.47776 73.7417 0.69516 74.5781 0.663086 75.5422C0.68233 75.5422 0.701574 75.5358 0.720819 75.5358Z" fill="#14E3ED"/>
<path d="M95.7813 112.97H65.6191V115.402H95.7813V112.97Z" fill="#14E3ED"/>
<path d="M67.6966 112.97H12.2539V115.402H67.6966V112.97Z" fill="#0099A8"/>
<path d="M97.488 18.6401C97.488 18.6401 97.9563 20.7408 95.9677 22.7903C94.6013 24.195 95.8715 24.6738 97.7446 24.7824" stroke="#192338" stroke-width="0.75" stroke-miterlimit="10" stroke-linecap="round"/>
<path d="M95.5244 28.3638C95.5244 28.3638 100.38 29.7808 101.99 25.6191" stroke="#192338" stroke-width="0.75" stroke-miterlimit="10" stroke-linecap="round"/>
<path d="M93.5105 21.916C94.219 21.916 94.7934 21.1271 94.7934 20.1538C94.7934 19.1806 94.219 18.3916 93.5105 18.3916C92.8019 18.3916 92.2275 19.1806 92.2275 20.1538C92.2275 21.1271 92.8019 21.916 93.5105 21.916Z" fill="#192338"/>
<path d="M101.471 21.916C102.18 21.916 102.754 21.1271 102.754 20.1538C102.754 19.1806 102.18 18.3916 101.471 18.3916C100.763 18.3916 100.188 19.1806 100.188 20.1538C100.188 21.1271 100.763 21.916 101.471 21.916Z" fill="#192338"/>
<path d="M91.9898 19.0361L93.5101 20.1525H91.8486L91.9898 19.0361Z" fill="#F4B5B5"/>
<path d="M99.9326 19.0361L101.459 20.1525H99.7979L99.9326 19.0361Z" fill="#F4B5B5"/>
<path d="M109.887 17.772C109.887 17.772 106.385 17.2102 105.358 12.9323C105.358 12.9323 101.728 15.1095 95.1845 14.3944C87.2815 13.5389 85.2288 4.84269 90.2387 -0.00341797C90.2387 -0.00341797 90.7326 3.74449 95.4026 2.4356C102.76 0.379673 105.827 1.21609 106.949 3.16986C106.949 3.16986 111.048 2.29513 112.517 6.65599C113.986 11.0168 111.709 17.5741 111.709 17.5741C111.709 17.5741 110.676 17.4017 109.887 17.772Z" fill="#2A395B"/>
<path d="M112.973 11.2274C112.973 11.2274 112.1 13.4813 109.278 13.5579C106.455 13.6345 105.544 10.8124 105.544 10.8124C105.544 10.8124 102.343 12.415 98.9371 11.0231C95.5308 9.63123 96.3712 6.75804 96.3712 6.75804C96.3712 6.75804 94.0041 7.66469 94.5494 10.7869C94.5494 10.7869 91.7461 8.57134 92.4838 6.13232C92.4838 6.13232 88.5772 7.60723 90.1039 12.2043C91.3612 13.3472 93.0547 14.1645 95.1908 14.4007C101.734 15.1094 105.365 12.9386 105.365 12.9386C106.391 17.2164 109.893 17.7783 109.893 17.7783C110.682 17.408 111.715 17.5804 111.715 17.5804C111.715 17.5804 112.761 14.5412 112.973 11.2274Z" fill="#192338"/>
<path d="M3.28027 115.403H169.313" stroke="#192338" stroke-miterlimit="10" stroke-linecap="round"/>
<path d="M33.4247 98.8201C34.9177 98.4545 35.7774 96.7397 35.3449 94.99C34.9124 93.2404 33.3515 92.1184 31.8585 92.484C30.3656 92.8496 29.5059 94.5644 29.9384 96.314C30.3709 98.0637 31.9318 99.1857 33.4247 98.8201Z" fill="#0099A8"/>
<path d="M64.2382 50.1179H23.7739C22.5615 50.1179 21.5801 49.141 21.5801 47.9342V29.7246C21.5801 28.5179 22.5615 27.541 23.7739 27.541H64.2446C65.457 27.541 66.4385 28.5179 66.4385 29.7246V47.9342C66.432 49.141 65.4506 50.1179 64.2382 50.1179Z" fill="#2A395B"/>
<path d="M31.9263 41.575C33.4497 41.575 34.6847 40.3458 34.6847 38.8295C34.6847 37.3132 33.4497 36.084 31.9263 36.084C30.4029 36.084 29.168 37.3132 29.168 38.8295C29.168 40.3458 30.4029 41.575 31.9263 41.575Z" fill="white"/>
<path d="M44.0054 41.575C45.5288 41.575 46.7638 40.3458 46.7638 38.8295C46.7638 37.3132 45.5288 36.084 44.0054 36.084C42.482 36.084 41.2471 37.3132 41.2471 38.8295C41.2471 40.3458 42.482 41.575 44.0054 41.575Z" fill="white"/>
<path d="M56.0845 41.575C57.6079 41.575 58.8429 40.3458 58.8429 38.8295C58.8429 37.3132 57.6079 36.084 56.0845 36.084C54.5611 36.084 53.3262 37.3132 53.3262 38.8295C53.3262 40.3458 54.5611 41.575 56.0845 41.575Z" fill="white"/>
<path d="M41.248 50.1177L50.6457 59.4715V50.1177H41.248Z" fill="#2A395B"/>
<path d="M92.7209 112.97C92.7209 112.97 89.3339 100.335 100.252 98.0487C111.17 95.7693 131.537 100.003 131.537 100.003C131.537 100.003 125.545 81.4864 123.518 65.7988C123.518 65.7988 121.491 80.0051 126.732 95.6544C126.732 95.6544 105.961 91.766 96.8712 96.1716C87.7815 100.571 91.0274 111.099 92.7209 112.97Z" fill="#B58226"/>
<path d="M97.6612 103.712C97.6612 103.712 89.6107 104.293 84.1196 103.316C84.1196 103.316 78.4746 101.835 77.4483 100.047C76.4219 98.2531 74.2666 101.663 77.7626 104.625C73.9971 107.071 72.4127 112.97 74.2666 112.97C74.2666 112.97 75.1646 113.111 76.191 111.84C75.9408 112.97 76.5695 113.985 78.6863 112.97C79.2572 112.696 79.7576 112.319 80.181 111.917C79.8346 112.798 80.5851 113.985 82.7084 112.97C83.2601 112.702 83.7476 112.338 84.1709 111.949C83.8245 112.83 84.6392 114.1 86.7048 112.97C88.4624 112.006 89.136 110.844 89.136 110.844L98.4823 110.716C99.1558 106.03 97.6612 103.712 97.6612 103.712Z" fill="#F4B5B5"/>
<path d="M82.6509 112.255C81.0665 113.359 80.5084 113.136 80.502 113.129C80.9061 113.423 81.6309 113.481 82.715 112.963C83.2667 112.695 83.7542 112.331 84.1776 111.942C84.1776 111.942 86.6665 108.788 86.2047 108.896C85.7364 109.011 84.2482 111.144 82.6509 112.255Z" fill="#ED8E8C"/>
<path d="M76.1979 111.834C76.1979 111.834 79.1744 108.641 78.7125 108.68C78.2506 108.718 76.9356 110.027 75.4089 111.572C74.1837 112.811 73.8116 112.728 73.709 112.645C73.8373 112.842 74.0233 112.964 74.2735 112.964C74.2735 112.964 75.1715 113.104 76.1979 111.834Z" fill="#ED8E8C"/>
<path d="M82.0166 108.788C81.4457 108.954 79.842 111.418 78.4179 112.491C77.0195 113.551 76.3396 112.989 76.3203 112.97C76.6346 113.449 77.3723 113.596 78.6874 112.97C79.2583 112.695 79.7586 112.319 80.182 111.916C80.1884 111.91 82.5875 108.622 82.0166 108.788Z" fill="#ED8E8C"/>
<path d="M86.7048 112.964C88.4625 112 89.136 110.838 89.136 110.838L98.4823 110.71C98.617 109.778 98.6619 108.948 98.6555 108.201C96.8914 108.609 91.7725 109.727 90.9257 109.19C89.8994 108.539 89.585 107.403 89.2771 108.558C88.9628 109.714 87.4746 111.463 86.2622 112.447C85.0498 113.423 84.3955 113.091 84.3955 113.091C84.7804 113.475 85.5437 113.602 86.7048 112.964Z" fill="#ED8E8C"/>
<path d="M97.8029 112.97C100.754 105.391 95.7822 101.146 95.7822 101.146" stroke="#B58226" stroke-miterlimit="10"/>
<path d="M81.6431 103.629C80.9888 103.316 79.5839 103.776 78.0829 103.061C76.5946 102.346 75.8762 101.03 75.8634 101.005C75.8185 101.995 76.2675 103.348 77.775 104.625C79.276 103.891 82.2974 103.942 81.6431 103.629Z" fill="#ED8E8C"/>
<path d="M155.676 101.146C155.618 101.139 142.063 99.8687 143.584 115.237C150.531 114.19 155.733 108.182 155.676 101.146Z" fill="#B58226"/>
<path d="M119.419 60.4932H86.8965V64.522H119.419V60.4932Z" fill="#B58226"/>
<path d="M119.419 67.5039H86.8965V71.5327H119.419V67.5039Z" fill="#B58226"/>
<path d="M93.5176 40.6553C93.5176 40.6553 94.0115 51.6308 104.981 52.3396C115.956 53.0483 118.086 43.5348 117.81 40.6553" stroke="#B58226" stroke-miterlimit="10"/>
<path d="M134.456 49.2429C123.955 53.7251 124.25 63.5322 124.25 63.5322C124.25 63.5322 126.271 57.39 131.781 53.3739C137.291 49.3578 135.572 48.7704 134.456 49.2429Z" fill="#B58226"/>
<path d="M81.7327 58.8073C81.7327 58.8073 79.3336 51.752 77.7363 49.1023C76.139 46.4526 81.8482 50.0792 81.7327 58.8073Z" fill="#B58226"/>
</svg>
