<svg width="27" height="28" viewBox="0 0 27 28" fill="none" xmlns="http://www.w3.org/2000/svg">
<path d="M11.7906 0.198118C8.76273 0.604599 6.11465 1.90851 3.97825 4.04121C3.43491 4.59023 2.62255 5.55628 2.41682 5.90469L2.32715 6.05778L4.66928 8.40165L7.00614 10.7402L7.12219 10.508C8.17193 8.42276 10.0921 6.97105 12.3181 6.5804C12.872 6.48538 14.0062 6.46954 14.5337 6.55401C15.615 6.72293 16.6173 7.12414 17.5352 7.74705C17.915 8.011 17.973 8.03212 18.2473 8.03212C18.4372 8.03212 18.5955 8.00045 18.6746 7.94766C18.8645 7.82096 22.0876 4.61134 22.2669 4.36851C22.3935 4.19958 22.4199 4.10984 22.4199 3.86701C22.4199 3.50804 22.346 3.38134 21.9188 3.03821C20.1252 1.57593 17.5932 0.509578 15.1772 0.192839C14.4071 0.0925388 12.5397 0.0925388 11.7906 0.198118Z" fill="#F03800"/>
<path d="M1.25019 7.92153C0.37453 9.8378 0 11.5429 0 13.6281C0 15.2118 0.189903 16.4101 0.659384 17.8249C0.859837 18.4425 1.29239 19.493 1.42427 19.6989C1.46647 19.7623 1.9887 19.2608 3.98268 17.2706C5.734 15.518 6.47779 14.7367 6.45669 14.6839C6.39339 14.5361 6.37229 13.1266 6.42504 12.8099L6.47779 12.4931L3.99323 9.99617C2.62171 8.62891 1.48757 7.50449 1.47174 7.50449C1.45592 7.50449 1.35569 7.68925 1.25019 7.92153Z" fill="#FFDA2D"/>
<path d="M13.1138 10.5603C13.0347 10.6131 12.9186 10.7293 12.8659 10.8084C12.7709 10.951 12.7656 11.1041 12.7656 13.6274C12.7656 16.1508 12.7709 16.3039 12.8659 16.4464C12.9186 16.5256 13.0347 16.6417 13.1138 16.6945C13.2615 16.7895 13.425 16.7948 16.5795 16.7948H19.887L19.7604 17.0429C19.5546 17.4494 19.1115 18.0459 18.6948 18.4841L18.3097 18.8853L20.578 21.1552L22.841 23.4199L23.2419 22.9976C25.3678 20.7435 26.6074 18.0934 26.9556 15.0633C27.04 14.3295 26.9978 12.239 26.8817 11.5686C26.7762 10.9404 26.7235 10.8137 26.4966 10.6184L26.3173 10.46H19.792C13.4883 10.46 13.2615 10.4653 13.1138 10.5603Z" fill="#4175DF"/>
<path d="M4.65326 18.8698L2.31641 21.2083L2.53796 21.5198C2.93359 22.0847 3.38725 22.6178 3.98333 23.2091C6.06698 25.2996 8.62539 26.5771 11.6586 27.0469C12.2599 27.1419 14.7445 27.1419 15.3511 27.0469C16.9495 26.7988 18.5056 26.2867 19.8349 25.5793C20.3044 25.326 21.5757 24.5024 21.5757 24.4549C21.5757 24.4338 20.547 23.3938 19.2916 22.1374L17.0022 19.8464L16.6382 20.0311C15.3722 20.6699 13.7053 20.918 12.3179 20.6752C10.2343 20.3109 8.39329 19.0017 7.34355 17.1383C7.19585 16.8743 7.05342 16.6315 7.03232 16.5945C7.00067 16.547 6.26743 17.2544 4.65326 18.8698Z" fill="#59C36A"/>
</svg>
